<?xml version="1.0" encoding="UTF-8" standalone="no"?>
<!-- Generator: Adobe Illustrator 18.1.1, SVG Export Plug-In . SVG Version: 6.00 Build 0)  -->

<svg
   version="1.1"
   id="Layer_1"
   x="0px"
   y="0px"
   viewBox="0 0 1000 400"
   enable-background="new 0 0 1000 400"
   xml:space="preserve"
   sodipodi:docname="churchillcloud-logo-color-text-white.svg"
   inkscape:version="1.4 (e7c3feb1, 2024-10-09)"
   xmlns:inkscape="http://www.inkscape.org/namespaces/inkscape"
   xmlns:sodipodi="http://sodipodi.sourceforge.net/DTD/sodipodi-0.dtd"
   xmlns="http://www.w3.org/2000/svg"
   xmlns:svg="http://www.w3.org/2000/svg"><defs
   id="defs49" /><sodipodi:namedview
   id="namedview49"
   pagecolor="#505050"
   bordercolor="#eeeeee"
   borderopacity="1"
   inkscape:showpageshadow="0"
   inkscape:pageopacity="0"
   inkscape:pagecheckerboard="0"
   inkscape:deskcolor="#505050"
   inkscape:zoom="1.357645"
   inkscape:cx="778.55403"
   inkscape:cy="285.05242"
   inkscape:window-width="1728"
   inkscape:window-height="1051"
   inkscape:window-x="0"
   inkscape:window-y="38"
   inkscape:window-maximized="0"
   inkscape:current-layer="g49" />
<g
   id="g49">
	
		<radialGradient
   id="SVGID_1_"
   cx="250.635"
   cy="1033.2303"
   r="198.2331"
   gradientTransform="matrix(0.8807 0 0 0.2041 35.2504 131.2373)"
   gradientUnits="userSpaceOnUse">
		<stop
   offset="0"
   style="stop-color:#000000"
   id="stop1" />
		<stop
   offset="1"
   style="stop-color:#000000;stop-opacity:0"
   id="stop2" />
	</radialGradient>
	<ellipse
   fill="url(#SVGID_1_)"
   cx="256"
   cy="342.1"
   rx="174.6"
   ry="40.5"
   id="ellipse2" />
	<g
   id="g16"
   style="fill:#ffffff">
		<g
   id="g15"
   style="fill:#ffffff">
			<g
   id="g10"
   style="fill:#ffffff">
				<path
   fill="#414042"
   d="M527.4,196.7c-2.1,1.7-4.4,3.1-6.9,4.3c-2.5,1.2-5.2,2.1-8.2,2.7c-3,0.6-6.3,0.9-10,0.9      c-5.6,0-10.7-1-15.5-3c-4.8-2-8.9-4.8-12.4-8.3c-3.5-3.5-6.2-7.7-8.1-12.4s-2.9-9.9-2.9-15.3v-0.2c0-5.4,1-10.5,2.9-15.3      c2-4.7,4.7-8.9,8.1-12.5c3.5-3.6,7.6-6.4,12.5-8.5c4.8-2.1,10.2-3.1,16.1-3.1c3.5,0,6.8,0.3,9.7,0.9c2.9,0.6,5.6,1.4,8,2.4      c2.4,1,4.6,2.2,6.6,3.7c2,1.4,3.9,3,5.6,4.8L522.3,150c-3-2.7-6-4.8-9.1-6.3c-3.1-1.5-6.5-2.3-10.4-2.3c-3.2,0-6.1,0.6-8.8,1.8      c-2.7,1.2-5,2.9-7,5.1c-2,2.2-3.5,4.7-4.6,7.5c-1.1,2.9-1.6,5.9-1.6,9.2v0.2c0,3.3,0.5,6.3,1.6,9.2c1.1,2.9,2.6,5.4,4.5,7.6      c1.9,2.2,4.2,3.9,6.9,5.2c2.7,1.3,5.7,1.9,9,1.9c4.3,0,8-0.8,11-2.4c3-1.6,6-3.8,9-6.5l10.6,10.7      C531.5,193.1,529.5,195,527.4,196.7z"
   id="path2"
   style="fill:#ffffff" />
				<path
   fill="#414042"
   d="M581.9,203.3v-32.4c0-3.9-0.9-6.8-2.6-8.8c-1.7-2-4.2-3-7.4-3c-3.2,0-5.7,1-7.5,3      c-1.8,2-2.8,4.9-2.8,8.8v32.4h-16.5v-79.2h16.5v29.4c0.9-1.2,2-2.4,3.1-3.6c1.1-1.1,2.4-2.1,3.7-3c1.4-0.9,2.9-1.6,4.6-2.1      c1.7-0.5,3.5-0.8,5.6-0.8c6.3,0,11.2,1.9,14.6,5.8c3.4,3.8,5.2,9.1,5.2,15.8v37.7H581.9z"
   id="path3"
   style="fill:#ffffff" />
				<path
   fill="#414042"
   d="M649.1,203.3V195c-0.9,1.2-2,2.4-3.1,3.6c-1.1,1.1-2.4,2.1-3.7,3c-1.4,0.9-2.9,1.6-4.6,2.1      c-1.7,0.5-3.5,0.8-5.6,0.8c-6.3,0-11.2-1.9-14.6-5.8c-3.4-3.8-5.2-9.1-5.2-15.8v-37.7h16.5v32.4c0,3.9,0.9,6.8,2.6,8.8      c1.7,2,4.2,3,7.4,3c3.2,0,5.7-1,7.5-3c1.8-2,2.8-4.9,2.8-8.8v-32.4h16.5v58.2H649.1z"
   id="path4"
   style="fill:#ffffff" />
				<path
   fill="#414042"
   d="M714.6,161.3c-5.5,0-9.8,1.7-13,5c-3.1,3.3-4.7,8.5-4.7,15.5v21.5h-16.5v-58.2h16.5v11.7      c1.7-4,3.9-7.2,6.8-9.6c2.9-2.4,6.8-3.5,11.7-3.3v17.3H714.6z"
   id="path5"
   style="fill:#ffffff" />
				<path
   fill="#414042"
   d="M767.3,201.6c-3.6,2-8.3,3-14.1,3c-4.3,0-8.4-0.8-12.1-2.4c-3.7-1.6-6.9-3.7-9.6-6.5      c-2.7-2.7-4.8-5.9-6.3-9.6c-1.5-3.7-2.3-7.5-2.3-11.7v-0.2c0-4.1,0.8-8,2.3-11.7c1.5-3.7,3.6-6.9,6.3-9.7      c2.7-2.8,5.9-4.9,9.6-6.5c3.7-1.6,7.8-2.4,12.3-2.4c5.5,0,10.1,0.9,13.7,2.6c3.6,1.7,6.8,4.1,9.6,7.2l-10.1,10.9      c-1.9-2-3.8-3.5-5.8-4.7c-2-1.2-4.5-1.7-7.4-1.7c-2.1,0-4,0.4-5.7,1.2c-1.7,0.8-3.2,2-4.5,3.4c-1.3,1.4-2.2,3.1-2.9,5      c-0.7,1.9-1,4-1,6.1v0.2c0,2.2,0.3,4.3,1,6.3c0.7,2,1.7,3.7,3,5.1c1.3,1.4,2.9,2.6,4.7,3.4c1.8,0.8,3.8,1.2,6.1,1.2      c2.7,0,5.2-0.6,7.2-1.7c2.1-1.1,4.1-2.6,6.1-4.5l9.7,9.8C774.2,197.1,770.9,199.6,767.3,201.6z"
   id="path6"
   style="fill:#ffffff" />
				<path
   fill="#414042"
   d="M824.5,203.3v-32.4c0-3.9-0.9-6.8-2.6-8.8c-1.7-2-4.2-3-7.4-3c-3.2,0-5.7,1-7.5,3      c-1.8,2-2.8,4.9-2.8,8.8v32.4h-16.5v-79.2h16.5v29.4c0.9-1.2,2-2.4,3.1-3.6c1.1-1.1,2.4-2.1,3.7-3c1.4-0.9,2.9-1.6,4.6-2.1      c1.7-0.5,3.5-0.8,5.6-0.8c6.3,0,11.2,1.9,14.6,5.8c3.4,3.8,5.2,9.1,5.2,15.8v37.7H824.5z"
   id="path7"
   style="fill:#ffffff" />
				<path
   fill="#414042"
   d="M855.7,138.7v-14.7h17.4v14.7H855.7z M856.1,203.3v-58.2h16.5v58.2H856.1z"
   id="path8"
   style="fill:#ffffff" />
				<path
   fill="#414042"
   d="M888.9,203.3v-79.2h16.5v79.2H888.9z"
   id="path9"
   style="fill:#ffffff" />
				<path
   fill="#414042"
   d="M921.7,203.3v-79.2h16.5v79.2H921.7z"
   id="path10"
   style="fill:#ffffff" />
			</g>
			<g
   id="g14"
   style="fill:#ffffff">
				<g
   id="g13"
   style="fill:#ffffff">
					<path
   fill="#414042"
   d="M486.1,100.2h-5V60.9h-14.7v-4.6h34.5v4.6h-14.7V100.2z"
   id="path11"
   style="fill:#ffffff" />
					<path
   fill="#414042"
   d="M515.2,80.4v19.8h-5V56.3h5v19.5h25.4V56.3h5v43.9h-5V80.4H515.2z"
   id="path12"
   style="fill:#ffffff" />
					<path
   fill="#414042"
   d="M589.6,60.8h-26.8v15h24v4.5h-24v15.4H590v4.5h-32.1V56.3h31.8V60.8z"
   id="path13"
   style="fill:#ffffff" />
				</g>
			</g>
		</g>
	</g>
	<g
   id="g21"
   style="fill:#ffffff">
		<g
   id="g20"
   style="fill:#ffffff">
			<path
   fill="#414042"
   d="M528.5,294.7c-2.1,1.6-4.4,3-6.9,4.2c-2.5,1.2-5.1,2.1-7.9,2.7c-2.8,0.7-6,1-9.4,1c-5.5,0-10.6-1-15.2-3     c-4.6-2-8.6-4.8-12.1-8.3c-3.4-3.5-6.1-7.7-8-12.4c-1.9-4.8-2.9-9.9-2.9-15.4c0-5.4,1-10.5,2.9-15.3c1.9-4.8,4.6-9,8-12.5     c3.4-3.6,7.5-6.4,12.2-8.5c4.7-2.1,9.8-3.1,15.4-3.1c3.5,0,6.6,0.3,9.4,0.9c2.8,0.6,5.4,1.4,7.8,2.4c2.4,1,4.6,2.3,6.6,3.8     c2,1.5,4,3.1,5.9,4.9l-5.9,6.3c-3.3-3-6.8-5.5-10.5-7.5c-3.7-2-8.2-2.9-13.4-2.9c-4.2,0-8.1,0.8-11.7,2.4     c-3.6,1.6-6.7,3.8-9.3,6.6c-2.6,2.8-4.7,6.1-6.2,9.9c-1.5,3.8-2.2,7.9-2.2,12.3c0,4.4,0.7,8.5,2.2,12.4c1.5,3.8,3.5,7.2,6.2,10     c2.6,2.8,5.8,5,9.3,6.7c3.6,1.6,7.5,2.4,11.7,2.4c5.2,0,9.7-1,13.5-2.9c3.8-1.9,7.5-4.6,11.1-8.1l5.6,5.5     C532.7,291.3,530.6,293.1,528.5,294.7z"
   id="path16"
   style="fill:#ffffff" />
			<path
   fill="#414042"
   d="M548.9,301.3v-79.2h8.4v79.2H548.9z"
   id="path17"
   style="fill:#ffffff" />
			<path
   fill="#414042"
   d="M629.5,284.5c-1.5,3.6-3.5,6.7-6.1,9.4c-2.6,2.7-5.7,4.8-9.3,6.4c-3.6,1.6-7.5,2.3-11.7,2.3     c-4.2,0-8.1-0.8-11.6-2.3c-3.5-1.6-6.6-3.7-9.2-6.3c-2.6-2.6-4.6-5.7-6.1-9.3c-1.4-3.5-2.2-7.3-2.2-11.3c0-4,0.7-7.8,2.2-11.3     c1.4-3.6,3.5-6.7,6.1-9.4c2.6-2.7,5.7-4.8,9.3-6.4c3.6-1.6,7.5-2.3,11.8-2.3c4.2,0,8.1,0.8,11.7,2.3c3.6,1.6,6.7,3.7,9.3,6.3     c2.6,2.6,4.6,5.7,6.1,9.3c1.4,3.5,2.2,7.3,2.2,11.3C631.8,277.2,631,280.9,629.5,284.5z M621.6,264.8c-1.1-2.7-2.5-5-4.4-7     c-1.9-2-4.1-3.6-6.6-4.7c-2.5-1.2-5.3-1.7-8.3-1.7c-3,0-5.8,0.6-8.4,1.7c-2.5,1.1-4.7,2.7-6.5,4.7c-1.8,2-3.2,4.3-4.2,6.9     c-1,2.6-1.5,5.5-1.5,8.5c0,3,0.5,5.9,1.6,8.6c1,2.7,2.5,5,4.3,6.9c1.8,1.9,4,3.5,6.6,4.7c2.5,1.2,5.3,1.7,8.3,1.7     c3,0,5.8-0.6,8.4-1.7c2.5-1.1,4.7-2.7,6.5-4.6c1.8-1.9,3.2-4.2,4.2-6.9c1-2.6,1.5-5.5,1.5-8.5     C623.2,270.3,622.7,267.5,621.6,264.8z"
   id="path18"
   style="fill:#ffffff" />
			<path
   fill="#414042"
   d="M686.7,245.2h8.3v56.1h-8.3v-9.8c-1.9,3-4.3,5.6-7.4,7.8c-3,2.1-7,3.2-11.8,3.2c-3.4,0-6.4-0.5-9.1-1.6     c-2.6-1.1-4.9-2.6-6.7-4.6c-1.8-2-3.3-4.4-4.2-7.1c-1-2.8-1.5-5.8-1.5-9.1v-34.8h8.4V278c0,5.2,1.3,9.3,4,12.4     c2.7,3,6.5,4.6,11.5,4.6c2.4,0,4.6-0.4,6.7-1.2c2.1-0.8,3.8-2,5.3-3.6c1.5-1.6,2.7-3.4,3.5-5.6c0.9-2.2,1.3-4.6,1.3-7.2V245.2z"
   id="path19"
   style="fill:#ffffff" />
			<path
   fill="#414042"
   d="M758.8,301.3V290c-1.2,1.7-2.4,3.3-3.9,4.8s-3,2.9-4.7,4c-1.7,1.2-3.7,2.1-5.8,2.7c-2.1,0.7-4.5,1-7.1,1     c-3.4,0-6.7-0.7-9.9-2c-3.2-1.3-6-3.2-8.6-5.7c-2.5-2.5-4.6-5.6-6.1-9.2c-1.5-3.6-2.3-7.7-2.3-12.4c0-4.6,0.8-8.8,2.3-12.4     c1.5-3.6,3.5-6.7,6.1-9.2c2.5-2.5,5.4-4.4,8.6-5.8c3.2-1.3,6.5-2,9.9-2c2.6,0,5,0.3,7.2,1c2.2,0.7,4.1,1.5,5.9,2.6     c1.7,1.1,3.3,2.4,4.7,3.8c1.4,1.4,2.7,3,3.7,4.6v-33.9h8.4v79.2H758.8z M757.4,264.3c-1.1-2.7-2.6-4.9-4.6-6.8     c-1.9-1.9-4.1-3.3-6.5-4.4c-2.4-1-4.9-1.6-7.5-1.6c-2.8,0-5.3,0.5-7.7,1.5c-2.4,1-4.5,2.4-6.2,4.2c-1.8,1.8-3.2,4.1-4.2,6.8     c-1,2.7-1.6,5.7-1.6,9.1c0,3.3,0.5,6.3,1.6,9c1,2.7,2.5,5,4.3,6.9c1.8,1.9,3.9,3.4,6.3,4.4c2.4,1,4.9,1.5,7.6,1.5     c2.6,0,5.1-0.5,7.5-1.6c2.4-1,4.6-2.5,6.5-4.4c1.9-1.9,3.4-4.2,4.6-6.9c1.1-2.7,1.7-5.7,1.7-8.9     C759.1,269.9,758.5,267,757.4,264.3z"
   id="path20"
   style="fill:#ffffff" />
		</g>
	</g>
	<g
   id="g48">
		<linearGradient
   id="SVGID_2_"
   gradientUnits="userSpaceOnUse"
   x1="255.9476"
   y1="423.8157"
   x2="141.4471"
   y2="175.6169">
			<stop
   offset="0"
   style="stop-color:#EF4137"
   id="stop21" />
			<stop
   offset="0.3776"
   style="stop-color:#39B54A"
   id="stop22" />
			<stop
   offset="0.4912"
   style="stop-color:#00B0A3"
   id="stop23" />
			<stop
   offset="0.9133"
   style="stop-color:#00AEEF"
   id="stop24" />
		</linearGradient>
		<circle
   fill="url(#SVGID_2_)"
   cx="140.4"
   cy="173.4"
   r="76.8"
   id="circle24" />
		<linearGradient
   id="SVGID_3_"
   gradientUnits="userSpaceOnUse"
   x1="99.0527"
   y1="151.3455"
   x2="72.0357"
   y2="92.7815">
			<stop
   offset="0"
   style="stop-color:#EF4137"
   id="stop25" />
			<stop
   offset="0.3776"
   style="stop-color:#39B54A"
   id="stop26" />
			<stop
   offset="0.4912"
   style="stop-color:#00B0A3"
   id="stop27" />
			<stop
   offset="0.9133"
   style="stop-color:#00AEEF"
   id="stop28" />
		</linearGradient>
		<circle
   fill="url(#SVGID_3_)"
   cx="71.8"
   cy="92.3"
   r="18.1"
   id="circle28" />
		<linearGradient
   id="SVGID_4_"
   gradientUnits="userSpaceOnUse"
   x1="233.3292"
   y1="194.4682"
   x2="174.3157"
   y2="66.5467">
			<stop
   offset="0"
   style="stop-color:#EF4137"
   id="stop29" />
			<stop
   offset="0.3776"
   style="stop-color:#39B54A"
   id="stop30" />
			<stop
   offset="0.4912"
   style="stop-color:#00B0A3"
   id="stop31" />
			<stop
   offset="0.9133"
   style="stop-color:#00AEEF"
   id="stop32" />
		</linearGradient>
		<path
   fill="url(#SVGID_4_)"
   d="M110.2,132.8c0.2-0.2-4.4-16.2-4.5-17.5c-6.4-50.7,41.8-92,88.8-97.3c6.5-0.7,13-0.6,19.5,0.3    c10.2,1.5,20,5.2,28.7,10.6c11,6.9,23.4,19.8,18.5,34C251,92.3,195.5,53.9,110.2,132.8z"
   id="path32" />
		
			<linearGradient
   id="SVGID_5_"
   gradientUnits="userSpaceOnUse"
   x1="335.6501"
   y1="264.6151"
   x2="256.1184"
   y2="92.217"
   gradientTransform="matrix(0.815 0.5795 -0.5795 0.815 133.5562 -177.8532)">
			<stop
   offset="0"
   style="stop-color:#000437"
   id="stop33" />
			<stop
   offset="0.9133"
   style="stop-color:#005CAB"
   id="stop34" />
		</linearGradient>
		<path
   fill="url(#SVGID_5_)"
   d="M195.8,82c0,0,11.4-62.2,93-56.4c62.7,2.6,93.1,68.7,68.2,86.5C332.1,129.9,309.5,67.3,195.8,82z"
   id="path34" />
		<linearGradient
   id="SVGID_6_"
   gradientUnits="userSpaceOnUse"
   x1="102.8553"
   y1="130.1746"
   x2="233.2209"
   y2="211.3292">
			<stop
   offset="0"
   style="stop-color:#000437"
   id="stop35" />
			<stop
   offset="0.4249"
   style="stop-color:#00366F"
   id="stop36" />
			<stop
   offset="0.9133"
   style="stop-color:#005CAB"
   id="stop37" />
		</linearGradient>
		<path
   fill="url(#SVGID_6_)"
   d="M115.3,280.3c0,0-29.8-35.4-27.2-91.1c2.6-55.7,54.8-111.4,140.3-94.5s117,44.9,117,44.9    s-1.3,18.1-75.5,27.2s-47.1,75.1-47.1,75.1s-14.7-48.8-59.1-44C119.2,202.6,98.4,239.7,115.3,280.3z"
   id="path37" />
		<linearGradient
   id="SVGID_7_"
   gradientUnits="userSpaceOnUse"
   x1="253.2889"
   y1="216.9531"
   x2="181.1994"
   y2="60.6873">
			<stop
   offset="0"
   style="stop-color:#EF4137"
   id="stop38" />
			<stop
   offset="0.2055"
   style="stop-color:#00B0A3"
   id="stop39" />
			<stop
   offset="0.9133"
   style="stop-color:#00AEEF"
   id="stop40" />
		</linearGradient>
		<path
   fill="url(#SVGID_7_)"
   d="M87.9,205.5c0,0,3.9-101,101-91.9c49.9,7.1,90,46.6,136.6,35.6c46.6-11,36.3-56.3,18.8-77.1    c-17.5-20.7-82.9-61.2-165.8-22C100.2,85.1,81.4,169.9,87.9,205.5z"
   id="path40" />
		<linearGradient
   id="SVGID_8_"
   gradientUnits="userSpaceOnUse"
   x1="150.6387"
   y1="165.7925"
   x2="369.1774"
   y2="301.8362">
			<stop
   offset="8.673500e-002"
   style="stop-color:#EF4137"
   id="stop41" />
			<stop
   offset="0.7925"
   style="stop-color:#FBB040"
   id="stop42" />
		</linearGradient>
		<path
   fill="url(#SVGID_8_)"
   d="M218.7,225.1c-1.8-2.8-3.7-5.5-6-8c-9.8-11.1-22.8-19.7-37.6-22.3c-9.7-1.7-19.6-0.6-28.9,2.6    c-45.8,15.5-63.9,84.6,19,131.2s187.3,15.5,227.1-65.6c24.2-53.5,7.8-95.8,7.8-95.8c0.8,2-2.7,8.7-3.3,10.5    c-16.9,47.2-59.6,89.6-112.2,90.2C253.5,268.3,234.5,249.7,218.7,225.1z"
   id="path42" />
		<linearGradient
   id="SVGID_9_"
   gradientUnits="userSpaceOnUse"
   x1="157.9826"
   y1="154.0092"
   x2="357.5228"
   y2="278.226">
			<stop
   offset="0.2075"
   style="stop-color:#FBB040"
   id="stop43" />
			<stop
   offset="0.9133"
   style="stop-color:#EF4137"
   id="stop44" />
		</linearGradient>
		<path
   fill="url(#SVGID_9_)"
   d="M146.4,197.4c-19.5,6.6-34,23-37.8,43.3c7.7,18.1,24.2,36.6,52.5,52.5    c82.9,46.6,187.3,15.5,227.1-65.6c9.7-21.5,12.9-41.2,13.2-57.1c-0.6-2.2-1.1-3.3-1.1-3.3c0.8,2-2.7,8.7-3.3,10.5    c-16.9,47.2-59.6,89.6-112.2,90.2c-31.1,0.4-50.1-18.3-65.9-42.9c-1.8-2.8-3.7-5.5-6-8c-9.8-11.1-22.8-19.7-37.6-22.3    C165.5,193.2,155.6,194.3,146.4,197.4z"
   id="path44" />
		<linearGradient
   id="SVGID_10_"
   gradientUnits="userSpaceOnUse"
   x1="217.625"
   y1="-28.982"
   x2="116.1945"
   y2="178.3868">
			<stop
   offset="0"
   style="stop-color:#FFFFFF"
   id="stop45" />
			<stop
   offset="1"
   style="stop-color:#FFFFFF;stop-opacity:0"
   id="stop46" />
		</linearGradient>
		<path
   fill="url(#SVGID_10_)"
   d="M122.3,94.3l31.4-3.2c0,0,20.4-64.8,73.5-59.2C227.2,31.8,135.6,14,122.3,94.3z"
   id="path46" />
		
			<linearGradient
   id="SVGID_11_"
   gradientUnits="userSpaceOnUse"
   x1="296.5199"
   y1="25.679"
   x2="195.094"
   y2="233.0381"
   gradientTransform="matrix(0.8056 0.5925 -0.5925 0.8056 138.5209 -173.5861)">
			<stop
   offset="0"
   style="stop-color:#FFFFFF"
   id="stop47" />
			<stop
   offset="1"
   style="stop-color:#FFFFFF;stop-opacity:0"
   id="stop48" />
		</linearGradient>
		<path
   fill="url(#SVGID_11_)"
   d="M212.3,65.6l27.2,16c0,0,54.8-40.1,94.3-4.2C333.9,77.4,270.6,8.8,212.3,65.6z"
   id="path48" />
	</g>
</g>
</svg>
